<?xml version="1.0" encoding="UTF-8"?>
<svg width="64px" height="64px" viewBox="0 0 64 64" version="1.1" xmlns="http://www.w3.org/2000/svg" xmlns:xlink="http://www.w3.org/1999/xlink">
    <title>Icon/01 Standard/close</title>
    <g id="Icon/01-Standard/close" stroke="none" stroke-width="1" fill="none" fill-rule="evenodd">
        <path d="M48.975556,15.024444 C50.5381128,16.5870008 50.2847723,19.3737464 48.4097042,21.2488145 L37.6585187,32 L48.4097042,42.7511855 C50.2847723,44.6262536 50.5381128,47.4129992 48.975556,48.975556 C47.4129992,50.5381128 44.6262536,50.2847723 42.7511855,48.4097042 L32,37.6585187 L21.2488145,48.4097042 C19.3737464,50.2847723 16.5870008,50.5381128 15.024444,48.975556 C13.4618872,47.4129992 13.7152277,44.6262536 15.5902958,42.7511855 L26.3414813,32 L15.5902958,21.2488145 C13.7152277,19.3737464 13.4618872,16.5870008 15.024444,15.024444 C16.5870008,13.4618872 19.3737464,13.7152277 21.2488145,15.5902958 L32,26.3414813 L42.7511855,15.5902958 C44.6262536,13.7152277 47.4129992,13.4618872 48.975556,15.024444 Z" id="🎨-Fill" fill="#FFFFFF"></path>
    </g>
</svg>