<?xml version="1.0" encoding="UTF-8"?>
<svg width="64px" height="64px" viewBox="0 0 64 64" version="1.1" xmlns="http://www.w3.org/2000/svg" xmlns:xlink="http://www.w3.org/1999/xlink">
    <title>Icon/01 Standard/information-circle</title>
    <g id="Icon/01-Standard/information-circle" stroke="none" stroke-width="1" fill="none" fill-rule="evenodd">
        <path d="M32,60 C16.536027,60 4,47.463973 4,32 C4,16.536027 16.536027,4 32,4 C47.463973,4 60,16.536027 60,32 C60,47.463973 47.463973,60 32,60 Z M32,22 C29.790861,22 28,20.209139 28,18 C28,15.790861 29.790861,14 32,14 C34.209139,14 36,15.790861 36,18 C36,20.209139 34.209139,22 32,22 Z M32,50 C29.790861,50 28,48.209139 28,46 L28,30 C28,27.790861 29.790861,26 32,26 C34.209139,26 36,27.790861 36,30 L36,46 C36,48.209139 34.209139,50 32,50 Z" id="🎨-Fill" fill="#FFFFFF"></path>
    </g>
</svg>