<?xml version="1.0" encoding="UTF-8"?>
<svg width="18px" height="18px" viewBox="0 0 18 18" version="1.1" xmlns="http://www.w3.org/2000/svg" xmlns:xlink="http://www.w3.org/1999/xlink">
    <title>Shape</title>
    <g id="Chatbot" stroke="none" stroke-width="1" fill="none" fill-rule="evenodd">
        <g id="Wyatt-Chatbot" transform="translate(-360, -582)" fill="#FFFFFF" fill-rule="nonzero">
            <g id="Send-message" transform="translate(353, 573)">
                <g id="paper-plane-regular" transform="translate(7, 9)">
                    <path d="M0.555052151,9.14772236 C-0.240008013,9.60123459 -0.166130741,10.8106006 0.681698902,11.1621604 L5.61740426,13.2187857 L5.61740426,16.8503992 C5.61740426,17.4867226 6.13102719,18 6.76777892,18 C7.10902156,18 7.43267437,17.8488293 7.65078822,17.5851593 L9.83192672,14.9730695 L14.1906858,16.7871184 C14.8555812,17.0648507 15.6260156,16.6289165 15.7350725,15.9187655 L17.9865703,1.29387476 C18.0534117,0.868487307 17.8669595,0.43958426 17.511645,0.197007946 C17.1563305,-0.045568367 16.6919591,-0.0666619595 16.3155368,0.147789564 L0.555052151,9.14772236 Z M2.38791209,10.0442 L14.4017637,3.18526688 L6.67631182,11.8125462 L6.7185274,11.8477022 L2.38791209,10.0442 Z M14.1766139,14.9554915 L8.31568366,12.5121504 L15.8476474,4.09932256 L14.1766139,14.9554915 Z" id="Shape"></path>
                </g>
            </g>
        </g>
    </g>
</svg>