<?xml version="1.0" encoding="UTF-8"?>
<svg width="67px" height="67px" viewBox="0 0 67 67" version="1.1" xmlns="http://www.w3.org/2000/svg" xmlns:xlink="http://www.w3.org/1999/xlink">
    <title>Wyatt PFP</title>
    <defs>
        <circle id="path-1" cx="33.5" cy="33.5" r="33.5"></circle>
        <polygon id="path-3" points="0 0 36.0091395 0 36.0091395 74.7813895 0 74.7813895"></polygon>
        <polygon id="path-5" points="0 0 13.4345034 0 13.4345034 13.4243945 0 13.4243945"></polygon>
    </defs>
    <g id="Chatbot" stroke="none" stroke-width="1" fill="none" fill-rule="evenodd">
        <g id="Wyatt-Chatbot" transform="translate(-28, -22)">
            <g id="Wyatt-PFP" transform="translate(28, 22)">
                <mask id="mask-2" fill="white">
                    <use xlink:href="#path-1"></use>
                </mask>
                <use id="Oval" fill="#FFCF4D" xlink:href="#path-1"></use>
                <g id="Avatar/Wyatt" mask="url(#mask-2)">
                    <g transform="translate(31.1438, 52.4641) rotate(7) translate(-31.1438, -52.4641)translate(13.1392, 6.507)" id="Group-33">
                        <g transform="translate(-0, -0)">
                            <polygon id="Fill-1" fill="#FFFFFF" points="0.94264763 51.7135114 34.1238442 51.7135114 34.1238442 18.4960734 0.94264763 18.4960734"></polygon>
                            <g id="Group-32">
                                <path d="M31.0208919,43.9617342 C30.5232025,43.9617342 30.1183854,44.3660253 30.1183854,44.863119 C30.1183854,45.3597687 30.5232025,45.7638377 31.0208919,45.7638377 C31.3072855,45.7638377 31.5599073,45.6272979 31.7256556,45.4186029 L31.7256556,44.3071911 C31.5599073,44.0984961 31.3072855,43.9617342 31.0208919,43.9617342" id="Fill-2" fill="#3399E1"></path>
                                <path d="M29.6392039,47.5426296 C29.5361111,47.5426296 29.4410168,47.4877916 29.3894704,47.3985412 L28.0072714,45.0072074 C27.955725,44.9179569 27.955725,44.8082811 28.0072714,44.7190307 L29.3894704,42.3270308 C29.4410168,42.2377804 29.5361111,42.1829424 29.6392039,42.1829424 L31.7255001,42.1829424 L31.7255001,26.9058026 L28.8229044,26.9058026 C28.6635993,26.9058026 28.5347333,26.7768113 28.5347333,26.6178479 C28.5347333,26.4586625 28.6635993,26.3296712 28.8229044,26.3296712 L31.7255001,26.3296712 L31.7255001,25.1094715 L28.8229044,25.1094715 C28.6635993,25.1094715 28.5347333,24.9804803 28.5347333,24.8215168 C28.5347333,24.6623314 28.6635993,24.5333401 28.8229044,24.5333401 L31.7255001,24.5333401 L31.7255001,23.3113643 L28.8229044,23.3113643 C28.6635993,23.3113643 28.5347333,23.1823731 28.5347333,23.0234096 C28.5347333,22.8642242 28.6635993,22.7352329 28.8229044,22.7352329 L31.7255001,22.7352329 L31.7255001,21.9754943 C31.7255001,21.664894 31.4735448,21.4131279 31.1627111,21.4131279 L4.846495,21.4131279 C4.5356613,21.4131279 4.28370604,21.664894 4.28370604,21.9754943 L4.28370604,48.272618 C4.28370604,48.5832183 4.5356613,48.8349844 4.846495,48.8349844 L31.1627111,48.8349844 C31.4735448,48.8349844 31.7255001,48.5832183 31.7255001,48.272618 L31.7255001,47.5426296 L29.6392039,47.5426296 Z" id="Fill-4" fill="#3399E1"></path>
                                <path d="M28.5900124,44.8630302 L29.8055743,46.9664093 L31.7256778,46.9664093 L31.7256778,46.1613795 C31.5159373,46.2752737 31.2759799,46.3401023 31.0209141,46.3401023 C30.2052811,46.3401023 29.5418434,45.6773847 29.5418434,44.8630302 C29.5418434,44.0482317 30.2052811,43.385514 31.0209141,43.385514 C31.2759799,43.385514 31.5159373,43.4503427 31.7256778,43.5642369 L31.7256778,42.759207 L29.8055743,42.759207 L28.5900124,44.8630302 Z" id="Fill-6" fill="#3399E1"></path>
                                <path d="M14.4162624,82.7144636 L4.21385178,82.7144636 C3.35489319,82.7144636 2.65857238,82.0188876 2.65857238,81.1605739 C2.65857238,80.3020382 3.35489319,79.6064622 4.21385178,79.6064622 L14.4162624,79.6064622 C15.275221,79.6064622 15.9715418,80.3020382 15.9715418,81.1605739 C15.9715418,82.0188876 15.275221,82.7144636 14.4162624,82.7144636" id="Fill-8" fill="#3399E1"></path>
                                <path d="M21.6493559,90.5707645 L11.4467231,90.5707645 C10.5877645,90.5707645 9.89144365,89.8751885 9.89144365,89.0166528 C9.89144365,88.1585612 10.5877645,87.4625412 11.4467231,87.4625412 L21.6493559,87.4625412 C22.5083145,87.4625412 23.2046353,88.1585612 23.2046353,89.0166528 C23.2046353,89.8751885 22.5083145,90.5707645 21.6493559,90.5707645" id="Fill-10" fill="#3399E1"></path>
                                <g id="Group-14" transform="translate(0, 17.1328)">
                                    <mask id="mask-4" fill="white">
                                        <use xlink:href="#path-3"></use>
                                    </mask>
                                    <g id="Clip-13"></g>
                                    <path d="M32.9374627,33.9842041 L3.07165459,33.9842041 C2.47953751,33.9842041 1.99962272,33.5046496 1.99962272,32.9129771 L1.99962272,3.06937056 C1.99962272,2.47769804 2.47953751,1.99814358 3.07165459,1.99814358 L32.9374627,1.99814358 C33.5295797,1.99814358 34.0094945,2.47769804 34.0094945,3.06937056 L34.0094945,32.9129771 C34.0094945,33.5046496 33.5295797,33.9842041 32.9374627,33.9842041 M33.4275979,-1.21484578e-15 L2.5815194,-1.21484578e-15 C1.15577256,-1.21484578e-15 -2.22182771e-05,1.15492699 -2.22182771e-05,2.57960337 L-2.22182771e-05,33.4027443 C-2.22182771e-05,34.8274207 1.15577256,35.9823476 2.5815194,35.9823476 L13.4164844,35.9823476 L13.4164844,60.9553682 C12.0769445,61.3112598 11.1137822,62.6005064 11.2790861,64.0829069 C11.4268377,65.4076761 12.5002027,66.4815673 13.8257451,66.63054 C15.5729904,66.8268021 17.0587266,65.4596278 17.0587266,63.7523252 C17.0587266,62.6049467 16.3864015,61.6143115 15.4161293,61.1454138 L15.4161293,35.9823476 L20.6496445,35.9823476 L20.6496445,69.2079232 C19.4774082,69.6934721 18.6902147,70.9256606 18.8872908,72.307932 C19.0705916,73.5940704 20.1312921,74.6177859 21.4232849,74.7627624 C23.1700859,74.9583584 24.6553777,73.5914062 24.6553777,71.8847696 C24.6553777,70.5986311 23.8117497,69.5067567 22.6492895,69.1295516 L22.6492895,35.9823476 L33.4275979,35.9823476 C34.8533447,35.9823476 36.0091395,34.8274207 36.0091395,33.4027443 L36.0091395,2.57960337 C36.0091395,1.15492699 34.8533447,-1.21484578e-15 33.4275979,-1.21484578e-15" id="Fill-12" fill="#000000" mask="url(#mask-4)"></path>
                                </g>
                                <path d="M15.3206796,7.87437304 C15.3206796,10.9393033 12.8333435,13.4243279 9.76633254,13.4243279 C6.69932156,13.4243279 4.21242981,10.9393033 4.21242981,7.87437304 C4.21242981,4.8094428 6.69932156,2.32441823 9.76633254,2.32441823 C12.8333435,2.32441823 15.3206796,4.8094428 15.3206796,7.87437304" id="Fill-15" fill="#3399E1"></path>
                                <path d="M13.0309306,8.95627899 C13.0309306,10.1640458 12.0511046,11.1438022 10.841986,11.1438022 C9.63197861,11.1438022 8.65259696,10.1640458 8.65259696,8.95627899 C8.65259696,7.74762413 9.63197861,6.76919983 10.841986,6.76919983 C12.0511046,6.76919983 13.0309306,7.74762413 13.0309306,8.95627899" id="Fill-17" fill="#000000"></path>
                                <path d="M12.3283665,7.35381224 C11.8686704,7.47392287 11.5273976,7.88820464 11.5273976,8.38529836 C11.5273976,8.97630483 12.0070902,9.45541525 12.5985408,9.45541525 C12.7367384,9.45541525 12.8680485,9.42721923 12.9891381,9.3794858 C13.0160222,9.24250195 13.0309084,9.10107779 13.0309084,8.95632339 C13.0309084,8.32180179 12.7594011,7.75299692 12.3283665,7.35381224" id="Fill-19" fill="#FFFFFF"></path>
                                <g id="Group-23" transform="translate(17.1814, 0)">
                                    <mask id="mask-6" fill="white">
                                        <use xlink:href="#path-5"></use>
                                    </mask>
                                    <g id="Clip-22"></g>
                                    <path d="M13.4345034,6.71196411 C13.4345034,10.4187425 10.4265931,13.4243945 6.71702953,13.4243945 C3.00768817,13.4243945 0,10.4187425 0,6.71196411 C0,3.00540776 3.00768817,-2.22015954e-05 6.71702953,-2.22015954e-05 C10.4265931,-2.22015954e-05 13.4345034,3.00540776 13.4345034,6.71196411" id="Fill-21" fill="#3399E1" mask="url(#mask-6)"></path>
                                </g>
                                <path d="M27.8466999,8.02057055 C27.8466999,9.48143552 26.661577,10.6661127 25.1993922,10.6661127 C23.7360965,10.6661127 22.5511958,9.48143552 22.5511958,8.02057055 C22.5511958,6.55859549 23.7360965,5.37547247 25.1993922,5.37547247 C26.661577,5.37547247 27.8466999,6.55859549 27.8466999,8.02057055" id="Fill-24" fill="#000000"></path>
                                <path d="M26.9968508,6.08257109 C26.4407273,6.22776952 26.0285783,6.72863751 26.0285783,7.32985671 C26.0285783,8.04452607 26.6084753,8.62398771 27.3236817,8.62398771 C27.4909853,8.62398771 27.6494016,8.59001927 27.7960423,8.53251714 C27.8284809,8.3664492 27.8466999,8.19549692 27.8466999,8.02054835 C27.8466999,7.25326121 27.518536,6.56523377 26.9968508,6.08257109" id="Fill-26" fill="#FFFFFF"></path>
                                <path d="M24.6487122,35.3982681 C22.8596965,34.117014 17.6955024,40.5001947 13.0367741,39.9262835 C12.6672841,39.8807702 11.7236739,39.7204747 11.5499269,40.0679296 C11.3284107,40.5106294 12.4468788,41.6011718 13.3907112,42.1904022 C16.0382411,43.8430889 19.3247687,42.8071625 19.6924811,42.6857197 C22.3728941,41.798766 25.3825819,39.3048608 25.144402,36.7425747 C25.0952996,36.2148428 25.0457528,35.6826705 24.6487122,35.3982681" id="Fill-28" fill="#FFFFFF"></path>
                                <path d="M12.6532199,40.9291295 C13.8921111,41.8778037 15.4093972,42.3999852 17.0104463,42.3999852 C20.4196187,42.3999852 23.2831102,40.0213063 24.0258672,36.8375975 C20.5084918,38.8388493 16.6385123,40.2311114 12.6532199,40.9291295 M17.0104463,44.4201084 C14.1422889,44.4201084 11.4849829,43.1139885 9.72018517,40.8367709 C9.49689149,40.5485942 9.44623382,40.1622864 9.58798643,39.8263763 C9.72951685,39.4904661 10.0414615,39.2566833 10.4038416,39.2149443 C15.5322643,38.6250479 20.3285238,36.899984 24.6595325,34.0881519 C24.9654782,33.8896697 25.3549646,33.8712423 25.6784627,34.0399745 C26.0019608,34.2089286 26.2090352,34.5390663 26.2205887,34.9033945 C26.2212552,34.9287043 26.2232549,34.9537921 26.2250323,34.9786579 C26.2303647,35.0532553 26.2345862,35.1276306 26.2345862,35.2035601 C26.2345862,40.2857273 22.0966542,44.4201084 17.0104463,44.4201084" id="Fill-30" fill="#000000"></path>
                            </g>
                        </g>
                    </g>
                </g>
            </g>
        </g>
    </g>
</svg>